<svg xmlns="http://www.w3.org/2000/svg" xmlns:xlink="http://www.w3.org/1999/xlink" viewBox="0 0 483.49 140.01"><defs><style>.cls-1{fill:none;}.cls-2{clip-path:url(#clip-path);}.cls-3{fill:#0e2b43;}.cls-4{fill:#ffc50d;}</style><clipPath id="clip-path" transform="translate(-8.25 -179.99)"><rect class="cls-1" width="500" height="500"/></clipPath></defs><g id="Layer_2" data-name="Layer 2"><g id="Layer_1-2" data-name="Layer 1"><g class="cls-2"><path class="cls-3" d="M421.43,271.5h0a3.49,3.49,0,0,1,3.71-3.47c.5,0,1,0,1.52,0a26.78,26.78,0,0,0,26.84-26.39c.13-18.42,15.12-33.73,33.54-33.73.46,0,.9,0,1.33,0a3.52,3.52,0,0,1,3.38,3.5h0a3.46,3.46,0,0,1-3.59,3.47l-1.24,0a26.84,26.84,0,0,0-26.71,26.46c-.08,17.18-12.31,32.05-29.43,33.48a41.36,41.36,0,0,1-6,.12A3.49,3.49,0,0,1,421.43,271.5Z" transform="translate(-8.25 -179.99)"/><path class="cls-3" d="M13.87,194.51a5.44,5.44,0,0,1-4-1.64,5.55,5.55,0,0,1-1.65-4.09A5,5,0,0,1,10,184.57a6.25,6.25,0,0,1,4-1.4,6.08,6.08,0,0,1,3.84,1.4,5,5,0,0,1,1.77,4.21,5.62,5.62,0,0,1-5.73,5.73ZM14,275.29a3.54,3.54,0,0,1-3.66-3.66V212.2a3.51,3.51,0,0,1,1-2.68,3.69,3.69,0,0,1,2.63-1,3.62,3.62,0,0,1,2.68,1,3.63,3.63,0,0,1,1,2.68v59.43a3.67,3.67,0,0,1-1,2.62A3.5,3.5,0,0,1,14,275.29Z" transform="translate(-8.25 -179.99)"/><path class="cls-3" d="M36.56,275.29a3.55,3.55,0,0,1-2.62-1,3.51,3.51,0,0,1-1-2.62V212.2a3.48,3.48,0,0,1,1-2.68,3.67,3.67,0,0,1,2.62-1,3.39,3.39,0,0,1,3.66,3.66v59.43a3.67,3.67,0,0,1-1,2.62A3.5,3.5,0,0,1,36.56,275.29Zm54.05,0A3.56,3.56,0,0,1,87,271.63V238.81q0-8.06-3.11-13.3a19.83,19.83,0,0,0-8.42-7.87,26.75,26.75,0,0,0-12-2.63,27.23,27.23,0,0,0-11.83,2.5,20.69,20.69,0,0,0-8.3,6.9,16.94,16.94,0,0,0-3.05,9.88h-6.1a27.2,27.2,0,0,1,4.51-13.6,28.8,28.8,0,0,1,10.5-9.52,29.63,29.63,0,0,1,14.27-3.48,34.07,34.07,0,0,1,15.8,3.6,26.67,26.67,0,0,1,11,10.5q4,6.89,4,17v32.82a3.54,3.54,0,0,1-1,2.62A3.59,3.59,0,0,1,90.61,275.29Z" transform="translate(-8.25 -179.99)"/><path class="cls-3" d="M136.37,276a34.47,34.47,0,0,1-17.51-4.45,32.43,32.43,0,0,1-12.2-12.21,36.46,36.46,0,0,1,0-35,32.53,32.53,0,0,1,12.2-12.14,34.47,34.47,0,0,1,17.51-4.46,32.91,32.91,0,0,1,15.8,3.78,28.43,28.43,0,0,1,10.92,10.13V183.66a3.49,3.49,0,0,1,1-2.69,3.67,3.67,0,0,1,2.62-1,3.39,3.39,0,0,1,3.66,3.67v58.93a33.31,33.31,0,0,1-16.78,29A33.93,33.93,0,0,1,136.37,276Zm0-6.83a26,26,0,0,0,23.24-13.36,27.93,27.93,0,0,0,3.48-14A27.54,27.54,0,0,0,159.61,228a27.21,27.21,0,0,0-36.91-9.7,26.53,26.53,0,0,0-9.64,9.7,27.18,27.18,0,0,0-3.54,13.91,27.55,27.55,0,0,0,3.54,14,26.39,26.39,0,0,0,23.31,13.36Z" transform="translate(-8.25 -179.99)"/><path class="cls-3" d="M189.2,194.51a5.4,5.4,0,0,1-4-1.64,5.55,5.55,0,0,1-1.65-4.09,5,5,0,0,1,1.77-4.21,6.22,6.22,0,0,1,4-1.4,6.11,6.11,0,0,1,3.85,1.4,5.06,5.06,0,0,1,1.76,4.21,5.6,5.6,0,0,1-5.73,5.73Zm.12,80.78a3.56,3.56,0,0,1-3.66-3.66V212.2a3.52,3.52,0,0,1,1-2.68,4.09,4.09,0,0,1,5.31,0,3.63,3.63,0,0,1,1,2.68v59.43a3.66,3.66,0,0,1-1,2.62A3.52,3.52,0,0,1,189.32,275.29Z" transform="translate(-8.25 -179.99)"/><path class="cls-3" d="M237.76,275.9a33.74,33.74,0,0,1-17.14-4.33,31,31,0,0,1-11.77-12A35.55,35.55,0,0,1,204.57,242a37.25,37.25,0,0,1,4-17.63,30.75,30.75,0,0,1,11.11-12,32.25,32.25,0,0,1,32.21-.18,29.31,29.31,0,0,1,10.86,11.59,35.88,35.88,0,0,1,3.9,17,3.26,3.26,0,0,1-1,2.5,3.58,3.58,0,0,1-2.56.91H209.46v-6.34h55.63l-5.37,4a29.85,29.85,0,0,0-2.68-14,22.79,22.79,0,0,0-8.36-9.57,23.11,23.11,0,0,0-12.75-3.48,22.45,22.45,0,0,0-12.38,3.48,24.05,24.05,0,0,0-8.54,9.57A30.7,30.7,0,0,0,211.9,242a29,29,0,0,0,3.29,14,24.45,24.45,0,0,0,9.15,9.58,25.79,25.79,0,0,0,13.42,3.48,29.39,29.39,0,0,0,9.58-1.65,20.48,20.48,0,0,0,7.63-4.33,3.46,3.46,0,0,1,2.38-1,3.24,3.24,0,0,1,2.37.79,3.36,3.36,0,0,1,1.41,2.44,3,3,0,0,1-1.16,2.44,30.8,30.8,0,0,1-10.19,5.86A34.63,34.63,0,0,1,237.76,275.9Z" transform="translate(-8.25 -179.99)"/><path class="cls-3" d="M277.05,303.84a3.56,3.56,0,0,1-3.66-3.66V241.25a34.72,34.72,0,0,1,4.7-17.15,32.77,32.77,0,0,1,12.14-11.9,34.12,34.12,0,0,1,17.2-4.39,34.5,34.5,0,0,1,17.51,4.46,32.48,32.48,0,0,1,12.2,12.2,36.35,36.35,0,0,1,0,34.89,32.5,32.5,0,0,1-12.2,12.21A34.49,34.49,0,0,1,307.43,276a32.77,32.77,0,0,1-15.8-3.78,28.21,28.21,0,0,1-10.92-10.13v38.07a3.67,3.67,0,0,1-1,2.62A3.5,3.5,0,0,1,277.05,303.84Zm30.38-34.65a26.3,26.3,0,0,0,13.73-3.6,26.69,26.69,0,0,0,9.58-9.76,29.1,29.1,0,0,0,0-27.82,26.61,26.61,0,0,0-9.58-9.76,27.85,27.85,0,0,0-27.39,0,25.94,25.94,0,0,0-9.58,9.76,29.54,29.54,0,0,0,0,27.82,26,26,0,0,0,9.58,9.76A26.35,26.35,0,0,0,307.43,269.19Z" transform="translate(-8.25 -179.99)"/><path class="cls-4" d="M378.52,237.75a5.52,5.52,0,0,0-7.7,1.23,5.45,5.45,0,0,0-.37,5.73l-9.32,13A26.61,26.61,0,0,1,393,217.46a3.33,3.33,0,0,0,4-1.16h0a3.36,3.36,0,0,0-1.35-5.05,33.44,33.44,0,0,0-37.3,53.84,2.18,2.18,0,0,0,2.11.89,2.06,2.06,0,0,0,1.19-.59,15.27,15.27,0,0,0,.94-1.23l1.9-2.64,10-13.91a5.45,5.45,0,0,0,5.32-2.18A5.51,5.51,0,0,0,378.52,237.75Z" transform="translate(-8.25 -179.99)"/><path class="cls-4" d="M404.78,217.61a2.17,2.17,0,0,0-.89.55c-.24.29-.62.89-.62.89l-2.43,3.38-9.46,13.17a5.46,5.46,0,0,0-4,9.86,5.46,5.46,0,0,0,8.06-7l8.85-12.32a26.63,26.63,0,0,1-31.9,40.52,3.4,3.4,0,0,0-4.08,1.16h0a3.42,3.42,0,0,0,1.33,5.12,33.41,33.41,0,0,0,36.27-55A1.49,1.49,0,0,0,404.78,217.61Z" transform="translate(-8.25 -179.99)"/><path class="cls-3" d="M20.63,320a11.16,11.16,0,0,1-4.3-.81,10.16,10.16,0,0,1-5.62-5.67,12,12,0,0,1,0-8.56,10.24,10.24,0,0,1,2.23-3.41,10.13,10.13,0,0,1,3.39-2.26,11.35,11.35,0,0,1,4.3-.8,11.27,11.27,0,0,1,4.27.8,10.31,10.31,0,0,1,3.41,2.26A10.11,10.11,0,0,1,30.55,305a12,12,0,0,1,0,8.56,10,10,0,0,1-2.24,3.41,10.31,10.31,0,0,1-3.41,2.26A11.08,11.08,0,0,1,20.63,320Zm0-2a8.86,8.86,0,0,0,3.44-.66,8.38,8.38,0,0,0,2.75-1.85,8.55,8.55,0,0,0,1.81-2.79,9.25,9.25,0,0,0,.65-3.48,9.09,9.09,0,0,0-.65-3.45A8.35,8.35,0,0,0,26.82,303a8.26,8.26,0,0,0-2.75-1.86,9.35,9.35,0,0,0-6.9,0A8.2,8.2,0,0,0,14.41,303a8.51,8.51,0,0,0-1.81,2.79,9.09,9.09,0,0,0-.64,3.45,9.24,9.24,0,0,0,.64,3.48,8.72,8.72,0,0,0,1.81,2.79,8.32,8.32,0,0,0,2.76,1.85A8.89,8.89,0,0,0,20.63,318Z" transform="translate(-8.25 -179.99)"/><path class="cls-3" d="M39.13,319.74a1,1,0,0,1-.77-.29,1,1,0,0,1-.28-.73V306.1a1.09,1.09,0,0,1,.28-.76,1,1,0,0,1,.77-.29,1,1,0,0,1,.74.29,1.05,1.05,0,0,1,.28.76v12.62a1,1,0,0,1-.28.73A1,1,0,0,1,39.13,319.74Zm9.42,0a1.05,1.05,0,0,1-.75-.29,1,1,0,0,1-.29-.73V311a4.35,4.35,0,0,0-1-3A3.26,3.26,0,0,0,44,306.85a3.68,3.68,0,0,0-2.74,1.09,3.87,3.87,0,0,0-1.07,2.83H38.67a6.81,6.81,0,0,1,.77-3A5.45,5.45,0,0,1,47,305.64a5.11,5.11,0,0,1,1.91,2.12,7.07,7.07,0,0,1,.68,3.22v7.74a1,1,0,0,1-.28.73A1,1,0,0,1,48.55,319.74Zm9.38,0a1.06,1.06,0,0,1-.76-.29,1,1,0,0,1-.29-.73V311a4.35,4.35,0,0,0-1-3,3.26,3.26,0,0,0-2.55-1.11A3.6,3.6,0,0,0,50.61,308a4.07,4.07,0,0,0-1,3H47.72a6.73,6.73,0,0,1,.78-3.17,5.35,5.35,0,0,1,2.07-2.12,5.92,5.92,0,0,1,3-.75,5.24,5.24,0,0,1,2.8.75,5.11,5.11,0,0,1,1.91,2.12A7.07,7.07,0,0,1,59,311v7.74a1,1,0,0,1-1,1Z" transform="translate(-8.25 -179.99)"/><path class="cls-3" d="M67.24,319.74a1,1,0,0,1-.76-.29,1,1,0,0,1-.28-.73V306.1a1,1,0,0,1,1-1.05,1,1,0,0,1,.74.28,1,1,0,0,1,.28.77v12.62a1,1,0,0,1-.28.73A1,1,0,0,1,67.24,319.74Zm11.55,0a1,1,0,0,1-1.05-1v-7a5.34,5.34,0,0,0-.63-2.74,3.93,3.93,0,0,0-1.72-1.61,5.82,5.82,0,0,0-4.83,0,4.2,4.2,0,0,0-1.68,1.39,3.5,3.5,0,0,0-.62,2H66.79a5.74,5.74,0,0,1,.91-3,6.07,6.07,0,0,1,2.28-2.1,6.6,6.6,0,0,1,3.17-.76,7.18,7.18,0,0,1,3.41.79A5.9,5.9,0,0,1,78.94,308a7.47,7.47,0,0,1,.87,3.74v7a1,1,0,0,1-.3.72A1,1,0,0,1,78.79,319.74Z" transform="translate(-8.25 -179.99)"/><path class="cls-3" d="M88.51,302.26a1.4,1.4,0,0,1-1-.43,1.43,1.43,0,0,1-.43-1.05,1.35,1.35,0,0,1,.44-1.06,1.52,1.52,0,0,1,1-.39,1.47,1.47,0,0,1,1,.39,1.32,1.32,0,0,1,.44,1.06,1.45,1.45,0,0,1-1.47,1.48Zm0,17.48a1,1,0,0,1-.76-.29,1,1,0,0,1-.28-.76V306.1a1,1,0,0,1,1-1.05,1,1,0,0,1,.74.28,1,1,0,0,1,.29.77v12.59a1,1,0,0,1-.29.76A1,1,0,0,1,88.53,319.74Z" transform="translate(-8.25 -179.99)"/><path class="cls-3" d="M97.13,313.43a1,1,0,0,1-.73-.3,1,1,0,0,1-.29-.72,1,1,0,0,1,1-1.05h6.31a1.05,1.05,0,0,1,.75.29,1,1,0,0,1,.29.76,1,1,0,0,1-.29.72,1,1,0,0,1-.75.3Z" transform="translate(-8.25 -179.99)"/><path class="cls-3" d="M117,319.87a7.28,7.28,0,0,1-3.77-1,7.12,7.12,0,0,1-2.61-2.67,7.69,7.69,0,0,1-1-3.81,7.9,7.9,0,0,1,.91-3.84,6.92,6.92,0,0,1,2.5-2.67,6.74,6.74,0,0,1,3.65-1,7.05,7.05,0,0,1,3,.64,6.86,6.86,0,0,1,2.43,1.93.76.76,0,0,1,.22.69,1.11,1.11,0,0,1-.46.63.86.86,0,0,1-.66.15,1.12,1.12,0,0,1-.63-.39,5,5,0,0,0-3.92-1.78,4.84,4.84,0,0,0-2.64.73,4.91,4.91,0,0,0-1.78,2,6.38,6.38,0,0,0-.63,2.9,6.11,6.11,0,0,0,.67,2.87,5.14,5.14,0,0,0,1.88,2A5.32,5.32,0,0,0,117,318a6.14,6.14,0,0,0,1.92-.28,4.34,4.34,0,0,0,1.54-.87,1.22,1.22,0,0,1,.67-.3.89.89,0,0,1,.65.22,1.07,1.07,0,0,1,.36.67.73.73,0,0,1-.25.64A7,7,0,0,1,117,319.87Z" transform="translate(-8.25 -179.99)"/><path class="cls-3" d="M130.15,313.75a1,1,0,0,1-.76-.3,1,1,0,0,1-.28-.75V299.81a1,1,0,0,1,1-1,1,1,0,0,1,.74.28,1,1,0,0,1,.28.76V312.7a1,1,0,0,1-.28.75A1,1,0,0,1,130.15,313.75Zm0,6a1,1,0,0,1-.76-.29,1,1,0,0,1-.28-.73V306.1a1,1,0,0,1,1-1.05,1,1,0,0,1,.74.28,1,1,0,0,1,.28.77v12.62a1,1,0,0,1-.28.73A1,1,0,0,1,130.15,319.74Zm11.55,0a1,1,0,0,1-1-1v-7A5.34,5.34,0,0,0,140,309a3.93,3.93,0,0,0-1.72-1.61,5.82,5.82,0,0,0-4.83,0,4.2,4.2,0,0,0-1.68,1.39,3.5,3.5,0,0,0-.62,2H129.7a5.74,5.74,0,0,1,.91-3,6.07,6.07,0,0,1,2.28-2.1,6.6,6.6,0,0,1,3.17-.76,7.18,7.18,0,0,1,3.41.79,5.9,5.9,0,0,1,2.38,2.32,7.47,7.47,0,0,1,.87,3.74v7a1,1,0,0,1-.3.72A1,1,0,0,1,141.7,319.74Z" transform="translate(-8.25 -179.99)"/><path class="cls-3" d="M156.44,319.87a7.05,7.05,0,0,1-6.3-3.65,7.69,7.69,0,0,1-.95-3.81,7.51,7.51,0,0,1,1-3.84,7.13,7.13,0,0,1,2.67-2.67,7.41,7.41,0,0,1,3.81-1,7.32,7.32,0,0,1,3.8,1,7.17,7.17,0,0,1,2.66,2.67,7.73,7.73,0,0,1,1,3.84l-.83.64a6.79,6.79,0,0,1-.9,3.48,6.67,6.67,0,0,1-2.45,2.44A6.81,6.81,0,0,1,156.44,319.87Zm.21-1.88a5.24,5.24,0,0,0,4.72-2.72,6.16,6.16,0,0,0,0-5.74,5.47,5.47,0,0,0-1.94-2,5.55,5.55,0,0,0-5.54,0,5.45,5.45,0,0,0-2,2,6,6,0,0,0,0,5.74,5.3,5.3,0,0,0,2,2A5.36,5.36,0,0,0,156.65,318Zm6.42,1.75a1.05,1.05,0,0,1-.75-.29.94.94,0,0,1-.3-.73v-4.6l.51-2.12,1.59.41v6.31a.94.94,0,0,1-.3.73A1,1,0,0,1,163.07,319.74Z" transform="translate(-8.25 -179.99)"/><path class="cls-3" d="M171.88,319.74a1,1,0,0,1-.77-.29,1,1,0,0,1-.28-.73V306.1a1,1,0,0,1,.28-.77,1,1,0,0,1,.77-.28,1,1,0,0,1,.74.28,1.07,1.07,0,0,1,.28.77v12.62a1,1,0,0,1-1,1Zm11.54,0a1,1,0,0,1-.75-.3,1,1,0,0,1-.29-.72v-7a5.34,5.34,0,0,0-.63-2.74,4,4,0,0,0-1.72-1.61,5.49,5.49,0,0,0-2.46-.54,5.43,5.43,0,0,0-2.38.51,4.24,4.24,0,0,0-1.67,1.39,3.42,3.42,0,0,0-.62,2h-1.48a5.83,5.83,0,0,1,.91-3,6.17,6.17,0,0,1,2.29-2.1,6.57,6.57,0,0,1,3.17-.76,7.2,7.2,0,0,1,3.41.79,5.81,5.81,0,0,1,2.37,2.32,7.47,7.47,0,0,1,.87,3.74v7a1,1,0,0,1-.29.72A1,1,0,0,1,183.42,319.74Z" transform="translate(-8.25 -179.99)"/><path class="cls-3" d="M192.74,319.74a1,1,0,0,1-.76-.29,1,1,0,0,1-.29-.73V306.1a1,1,0,0,1,.29-.77,1,1,0,0,1,.76-.28,1,1,0,0,1,.74.28,1,1,0,0,1,.28.77v12.62a1,1,0,0,1-.28.73A1,1,0,0,1,192.74,319.74Zm11.55,0a1,1,0,0,1-1-1v-7a5.34,5.34,0,0,0-.63-2.74,3.93,3.93,0,0,0-1.72-1.61,5.46,5.46,0,0,0-2.46-.54,5.39,5.39,0,0,0-2.37.51,4.2,4.2,0,0,0-1.68,1.39,3.5,3.5,0,0,0-.62,2h-1.48a5.75,5.75,0,0,1,.92-3,6.07,6.07,0,0,1,2.28-2.1,6.57,6.57,0,0,1,3.17-.76,7.18,7.18,0,0,1,3.41.79,5.81,5.81,0,0,1,2.37,2.32,7.37,7.37,0,0,1,.88,3.74v7a1,1,0,0,1-1,1Z" transform="translate(-8.25 -179.99)"/><path class="cls-3" d="M219.22,319.87a7.75,7.75,0,0,1-3.86-.95,6.9,6.9,0,0,1-2.63-2.65,7.78,7.78,0,0,1-.95-3.86,8.08,8.08,0,0,1,.9-3.88,6.81,6.81,0,0,1,2.48-2.65,6.91,6.91,0,0,1,3.65-1,6.67,6.67,0,0,1,3.56.92,6.22,6.22,0,0,1,2.35,2.57,8.16,8.16,0,0,1,.83,3.73.9.9,0,0,1-.27.68,1,1,0,0,1-.69.26H213.17v-1.72H224.8l-1.15.83a6.14,6.14,0,0,0-.57-2.79,4.52,4.52,0,0,0-1.68-1.93,4.65,4.65,0,0,0-2.59-.7,5,5,0,0,0-2.68.72,4.89,4.89,0,0,0-1.79,2,6.5,6.5,0,0,0-.63,2.92,5.85,5.85,0,0,0,.71,2.9,5.29,5.29,0,0,0,2,2,5.45,5.45,0,0,0,2.85.73,5.79,5.79,0,0,0,1.94-.34,4.55,4.55,0,0,0,1.57-.84,1.12,1.12,0,0,1,.67-.26,1,1,0,0,1,.65.2,1,1,0,0,1,.36.7.77.77,0,0,1-.31.65,7.29,7.29,0,0,1-2.25,1.24A7.54,7.54,0,0,1,219.22,319.87Z" transform="translate(-8.25 -179.99)"/><path class="cls-3" d="M234.9,319.74a3.28,3.28,0,0,1-1.92-.59,3.85,3.85,0,0,1-1.32-1.64,5.94,5.94,0,0,1-.47-2.42v-15.3a1,1,0,0,1,.28-.74,1,1,0,0,1,.74-.28,1,1,0,0,1,1,1v15.3a3.42,3.42,0,0,0,.47,1.88,1.4,1.4,0,0,0,1.2.73h.67a.79.79,0,0,1,.64.28,1.1,1.1,0,0,1,.24.74.9.9,0,0,1-.33.73,1.32,1.32,0,0,1-.87.29Z" transform="translate(-8.25 -179.99)"/></g></g></g></svg>